Coordinates
version=1
nRows=17
nColumns=24
inDegrees=yes

Units are S.I. units (second, meters, Newtons, ...)
Angles are in degrees.

endheader
time	pelvis_tilt	pelvis_list	pelvis_rotation	pelvis_tx	pelvis_ty	pelvis_tz	hip_flexion_r	hip_adduction_r	hip_rotation_r	knee_angle_r	ankle_angle_r	subtalar_angle_r	mtp_angle_r	hip_flexion_l	hip_adduction_l	hip_rotation_l	knee_angle_l	ankle_angle_l	subtalar_angle_l	mtp_angle_l	lumbar_extension	lumbar_bending	lumbar_rotation
      0.46200000	     -7.20695611	      4.18039743	      1.14171745	     -0.79305480	      0.98285159	      0.29025386	     32.44225546	     -2.26514340	     -3.36328370	    -10.34630877	      2.05356330	     -8.85765191	     -0.04611893	     -8.11221255	      7.85542350	      0.19405661	     -5.43772163	      7.10109088	     -2.74670269	      0.27572356	      2.05794664	     -2.11322018	      1.44703398
      0.46616667	     -7.24497635	      4.17358521	      1.17312152	     -0.78692706	      0.98218847	      0.29053537	     32.36979510	     -2.20165196	     -3.42846281	    -10.28545001	      1.98925744	     -8.93058929	     -0.02993318	     -8.17262963	      7.81675339	      0.29090208	     -5.95398167	      7.05892312	     -2.84878834	      0.31928906	      2.16704165	     -2.08460116	      1.48843766
      0.47033333	     -7.28451523	      4.18048629	      1.20287581	     -0.78078990	      0.98155213	      0.29082387	     32.30518262	     -2.15375270	     -3.47816870	    -10.30290594	      1.80458079	     -8.96554756	     -0.00592428	     -8.18428034	      7.79144578	      0.33071257	     -6.55899712	      7.02877502	     -2.87235964	      0.38202505	      2.28094711	     -2.08721491	      1.46535980
      0.47450000	     -7.33604989	      4.18106950	      1.23715792	     -0.77464641	      0.98093225	      0.29110692	     32.25717730	     -2.10290643	     -3.50101010	    -10.39719581	      1.57237580	     -9.01599946	      0.04051504	     -8.14091198	      7.75833069	      0.36749691	     -7.24305188	      6.98922404	     -2.83164400	      0.49428833	      2.39881407	     -2.07527357	      1.40177232
      0.47866667	     -7.37213466	      4.18841390	      1.26627939	     -0.76848172	      0.98036995	      0.29138338	     32.19874456	     -2.06117044	     -3.51145645	    -10.56547455	      1.31070821	     -9.08703323	      0.10289530	     -8.08230837	      7.73444242	      0.39503189	     -7.98097798	      6.92047402	     -2.81118997	      0.63946327	      2.50673291	     -2.06774240	      1.34524447
      0.48283333	     -7.42381399	      4.18207335	      1.27934820	     -0.76228456	      0.97980474	      0.29170260	     32.15038401	     -1.99306203	     -3.44983589	    -10.77625553	      1.00914332	     -9.35107877	      2.00839373	     -7.96480970	      7.69380507	      0.35561563	     -8.79023905	      6.74918919	     -2.84725868	      4.68134034	      2.64738061	     -2.05462472	      1.35103561
      0.48700000	     -7.43333604	      4.17717446	      1.29709739	     -0.75605161	      0.97935515	      0.29195733	     32.07357488	     -1.94702209	     -3.47226261	    -11.07628882	      0.67979621	     -9.38301480	      2.01824502	     -7.87094986	      7.66240447	      0.37896217	     -9.64171514	      6.59296220	     -2.90768139	      4.69908901	      2.73994197	     -2.01861173	      1.31143520
      0.49116667	     -7.46732140	      4.16155987	      1.31789922	     -0.74983663	      0.97891605	      0.29223753	     32.02073464	     -1.88617844	     -3.42560585	    -11.41491825	      0.29329215	     -9.49524178	      2.04312466	     -7.70374993	      7.61696726	      0.40836997	    -10.57325345	      6.41398137	     -2.91973979	      4.75799234	      2.83916441	     -1.97679954	      1.26698928
      0.49533333	     -7.54326661	      4.15855231	      1.32558899	     -0.74364204	      0.97843219	      0.29255332	     32.01810825	     -1.82385091	     -3.28239818	    -11.79976689	     -0.01988210	     -9.80271545	      2.13612594	     -7.42807922	      7.58338320	      0.36557801	    -11.62229201	      6.22338685	     -2.91288751	      4.98937399	      3.00809533	     -1.95494020	      1.22183111
      0.49950000	     -7.55437170	      4.13268405	      1.34343248	     -0.73739555	      0.97810538	      0.29283234	     31.93185638	     -1.75686121	     -3.20519755	    -12.18788791	     -0.46072338	     -9.94859708	      2.20048741	     -7.19759596	      7.52517053	      0.36797342	    -12.70979508	      5.94259367	     -2.95326695	      5.18456373	      3.09910354	     -1.90795468	      1.24384174
      0.50366667	     -7.57778286	      4.09733336	      1.32934101	     -0.73115773	      0.97777260	      0.29316656	     31.88561806	     -1.66324211	     -3.07778248	    -12.65667580	     -0.84075999	    -10.28432551	      3.50282575	     -6.90207243	      7.45280782	      0.27895247	    -13.87153932	      5.54923792	     -3.02033488	      9.30746250	      3.19815727	     -1.83550112	      1.28557232
      0.50783333	     -7.59857260	      4.06913415	      1.32297085	     -0.72494683	      0.97748429	      0.29348086	     31.84882995	     -1.58757943	     -2.96946562	    -13.17179025	     -1.20225758	    -10.48008999	      3.52072178	     -6.55704420	      7.38887649	      0.20922451	    -15.12995585	      5.20173162	     -3.03501018	      9.38580682	      3.29486939	     -1.77083579	      1.29695248
      0.51200000	     -7.62522503	      4.03094471	      1.32015727	     -0.71873719	      0.97722432	      0.29380436	     31.81278830	     -1.50498237	     -2.85099855	    -13.69136426	     -1.57534929	    -10.64924045	      3.53343948	     -6.16018111	      7.31068394	      0.13922038	    -16.46453839	      4.76316896	     -3.06137772	      9.48701729	      3.40355612	     -1.70230978	      1.34726697
      0.51616667	     -7.64796559	      3.98126474	      1.30447977	     -0.71256342	      0.97698853	      0.29416226	     31.78730413	     -1.40332280	     -2.70783697	    -14.25484258	     -1.87981196	    -10.88507978	      3.54915663	     -5.69938779	      7.21121036	      0.00127814	    -17.90577488	      4.29345771	     -3.04039624	      9.65941021	      3.50347868	     -1.61656281	      1.40940682
      0.52033333	     -7.65391931	      3.89813638	      1.27877817	     -0.70641119	      0.97680909	      0.29459804	     31.73834874	     -1.25014469	     -2.49498205	    -14.82954910	     -2.08741721	    -11.43926972	      3.61317643	     -5.20073316	      7.05849248	     -0.19738260	    -19.43480505	      3.78263590	     -2.92605776	     10.53529412	      3.56946076	     -1.49630405	      1.51088422
      0.52450000	     -7.66578354	      3.82454415	      1.25817303	     -0.70028498	      0.97663193	      0.29495672	     31.71772025	     -1.13563606	     -2.40094398	    -15.43860237	     -2.36929322	    -11.41976961	      3.62452662	     -4.64847437	      6.92562778	     -0.35040002	    -21.03950317	      3.18956466	     -2.97770507	     10.77817781	      3.65619256	     -1.38557335	      1.57496841
      0.52866667	     -7.64846912	      3.71743781	      1.22708295	     -0.69419535	      0.97650906	      0.29537792	     31.67409964	     -0.97470410	     -2.27460064	    -16.08413284	     -2.51379843	    -11.69063999	      3.72579517	     -4.07338401	      6.73579355	     -0.56908423	    -22.71033873	      2.47977573	     -3.00844952	     15.85113145	      3.68904669	     -1.22784402	      1.66017334
